# xmcd
#
# Track frame offsets:
#	182
#	11310
#	23990
#	35525
#	47002
#	58602
#	72847
#	87500
#	106917
#	117955
#	133602
#	148525
#	161007
#	175707
#	190130
#	201717
#
# Disc length: 2889 seconds
#
# Revision: 0
# Processed by: cddbd v1.5.1PL0 Copyright (c) Steve Scherf et al.
# Submitted via: EasyCDDAExtractor 4.6.9.1
#
DISCID=de0b4710
DTITLE=Frank Sinatra - My Blue Heaven Vol3
DYEAR=1991
DGENRE=Blues
TTITLE0=My Blue Heaven
TTITLE1=S'posin'
TTITLE2=You Can Take My Word For It Baby
TTITLE3=Blue Skies
TTITLE4=The Continental
TTITLE5=It's The Same Old Dream
TTITLE6=Laura
TTITLE7=Stormy Weather
TTITLE8=Should I
TTITLE9=Birth Of The Blues
TTITLE10=Mean To Me
TTITLE11=It All Depends On You
TTITLE12=Deep Night
TTITLE13=Sweet Lorraine
TTITLE14=Castle Rock
TTITLE15=Why Can't You Behave
EXTD=
EXTT0=
EXTT1=
EXTT2=
EXTT3=
EXTT4=
EXTT5=
EXTT6=
EXTT7=
EXTT8=
EXTT9=
EXTT10=
EXTT11=
EXTT12=
EXTT13=
EXTT14=
EXTT15=
PLAYORDER=
